# xmcd CD database file
#
# Track frame offsets:
#	150
#	9573
#	19971
#	30369
#	44067
#	53490
#	61713
#	70761
#	81684
#	90732
#	101880
#	110553
#	122526
#	133524
#	147597
#	158745
#	170868
#	180741
#	193539
#	205362
#	216660
#	227958
#	240456
#	252729
#
# Disc length: 3536 seconds
#
# Revision: 0
# Processed by: cddbd v1.5.2PL0 Copyright (c) Steve Scherf et al.
# Submitted via: CDex 1.70beta2
#
DISCID=690dce18
DTITLE=TCH - Top Country Hits
DYEAR=1900
DGENRE=Country
TTITLE0=George Hamilton IV -  Abeline
TTITLE1=Hank Locklin - Behind the Footlights
TTITLE2=John Loudermilk - Blue Train
TTITLE3=Jim Reeves - Guilty
TTITLE4=Bobby Bare - Have I Stayed too Long
TTITLE5=Don Gibson - Head over Heels in Love with You
TTITLE6=Skeeter Davis - I Can't stay Mad with You
TTITLE7=Jim Reeves and Dottie West - Love is No Excuse
TTITLE8=Floyd Cramer - Naomi
TTITLE9=Hank Snow - Ninety Miles an Hour
TTITLE10=Portet Wagoner - Sorrow On the Rocks
TTITLE11=Eddy Arnold - Yesterday's Memories
TTITLE12=Hank Snow - A Fool such as I
TTITLE13=Porter Wagoner - Legdend of the Big Steeple
TTITLE14=Skeeter Davis - My Last Date
TTITLE15=Pee Wee King and Redd Stewart - Bonapartes Retreat
TTITLE16=Jim Reeves - I'm Getting Better
TTITLE17=Jimmie Rogers - I'm in the Jailhouse Now No 2
TTITLE18=Don Gibson - Just in Time
TTITLE19=The Browns - Scarlet Ribbons
TTITLE20=Hank Locklin - It's a Little more like Heaven
TTITLE21=Eddy Arnold - AnyTime
TTITLE22=Homer and Jethro - That Doggie in the Window
TTITLE23=Elton Britt - Some Day
EXTD=
EXTT0=
EXTT1=
EXTT2=
EXTT3=
EXTT4=
EXTT5=
EXTT6=
EXTT7=
EXTT8=
EXTT9=
EXTT10=
EXTT11=
EXTT12=
EXTT13=
EXTT14=
EXTT15=
EXTT16=
EXTT17=
EXTT18=
EXTT19=
EXTT20=
EXTT21=
EXTT22=
EXTT23=
PLAYORDER=
